<svg width="131" height="158" viewBox="0 0 131 158" fill="none" xmlns="http://www.w3.org/2000/svg">
<path d="M66.488 157.592C53.624 157.592 42.2 154.712 32.216 148.952C22.424 143 14.744 134.36 9.176 123.032C3.608 111.704 0.824 97.784 0.824 81.272C0.824 64.76 3.704 50.456 9.464 38.36C15.224 26.264 23.288 16.952 33.656 10.424C44.216 3.704 56.696 0.344 71.096 0.344C84.536 0.344 95.576 3.224 104.216 8.98399C113.048 14.552 119.576 22.328 123.8 32.312C128.216 42.296 130.424 53.72 130.424 66.584C130.424 68.696 130.328 70.904 130.136 73.208C129.944 75.32 129.752 77.816 129.56 80.696H24.728C25.112 98.744 29.336 113.144 37.4 123.896C45.464 134.456 56.984 139.736 71.96 139.736C79.064 139.736 86.84 138.392 95.288 135.704C103.736 132.824 112.472 128.504 121.496 122.744L129.848 135.704C119.096 143.192 108.344 148.76 97.592 152.408C86.84 155.864 76.472 157.592 66.488 157.592ZM69.368 17.912C56.696 17.912 46.616 22.232 39.128 30.872C31.832 39.32 27.32 50.456 25.592 64.28H106.52C106.712 56.024 105.56 48.44 103.064 41.528C100.568 34.424 96.536 28.76 90.968 24.536C85.592 20.12 78.392 17.912 69.368 17.912Z" fill="#E8E9EE"/>
</svg>
