<svg width="69" height="217" viewBox="0 0 69 217" fill="none" xmlns="http://www.w3.org/2000/svg">
<path d="M68.912 204.616V217H0.944001V204.616L23.408 199.72V82.792L0.944001 78.184V65.8L46.448 64.072V199.72L68.912 204.616ZM33.2 32.968C28.784 32.968 25.136 31.624 22.256 28.936C19.376 26.056 17.936 22.024 17.936 16.84C17.936 11.656 19.376 7.71998 22.256 5.03198C25.328 2.15199 29.072 0.711987 33.488 0.711987C38.096 0.711987 41.84 2.15199 44.72 5.03198C47.6 7.71998 49.04 11.656 49.04 16.84C49.04 22.024 47.504 26.056 44.432 28.936C41.552 31.624 37.808 32.968 33.2 32.968Z" fill="#E8E9EE"/>
</svg>
