<svg width="85" height="244" viewBox="0 0 85 244" fill="none" xmlns="http://www.w3.org/2000/svg">
<path d="M8.64 2.41599L84.672 0.975996V13.36L59.616 19.12V186.16C59.616 204.976 55.776 219.28 48.096 229.072C40.608 238.864 28.032 243.76 10.368 243.76C7.68 243.76 4.992 243.568 2.304 243.184C-0.384 242.992 -3.168 242.704 -6.048 242.32L-4.032 225.04C-2.304 225.232 -0.672 225.328 0.864 225.328C2.4 225.52 4.032 225.616 5.76 225.616C16.704 225.616 24.48 222.736 29.088 216.976C33.696 211.408 36 202.576 36 190.48V19.12L8.64 14.8V2.41599Z" fill="#47767E"/>
</svg>
