<svg width="168" height="155" viewBox="0 0 168 155" fill="none" xmlns="http://www.w3.org/2000/svg">
<path d="M0.944001 155V142.616L23.408 137.72V21.08L0.944001 16.184V3.79999L41.264 1.784L44.144 25.976C53.36 17.144 62.864 10.712 72.656 6.67999C82.64 2.456 92.144 0.344 101.168 0.344C113.84 0.344 124.304 4.28 132.56 12.152C141.008 20.024 145.136 32.024 144.944 48.152V137.72L167.408 142.616V155H100.304V142.616L121.904 138.008V53.048C121.904 41.144 119.216 32.408 113.84 26.84C108.464 21.272 101.264 18.488 92.24 18.488C85.328 18.488 77.84 20.312 69.776 23.96C61.904 27.416 54.128 32.888 46.448 40.376V138.008L68.048 142.616V155H0.944001Z" fill="#E8E9EE"/>
</svg>
