<svg width="140" height="100" viewBox="0 0 140 158" fill="none" xmlns="http://www.w3.org/2000/svg">
<path d="M71.672 0.344C92.6 0.344 109.112 6.968 121.208 20.216C133.304 33.464 139.352 52.184 139.352 76.376C139.352 92.888 136.472 107.192 130.712 119.288C124.952 131.384 116.6 140.792 105.656 147.512C94.904 154.232 81.944 157.592 66.776 157.592C46.04 157.592 29.816 151.16 18.104 138.296C6.392 125.24 0.536001 106.52 0.536001 82.136C0.536001 65.432 3.32 50.936 8.888 38.648C14.648 26.36 22.808 16.952 33.368 10.424C44.12 3.704 56.888 0.344 71.672 0.344ZM70.52 17.336C55.736 17.336 44.408 22.904 36.536 34.04C28.664 45.176 24.728 60.824 24.728 80.984C24.728 100.76 28.472 115.64 35.96 125.624C43.448 135.608 54.2 140.6 68.216 140.6C83.576 140.6 95.192 135.032 103.064 123.896C111.128 112.76 115.16 97.304 115.16 77.528C115.16 57.944 111.224 43.064 103.352 32.888C95.672 22.52 84.728 17.336 70.52 17.336Z" fill="#E8E9EE"/>
</svg>
