<svg width="109" height="158" viewBox="0 0 109 158" fill="none" xmlns="http://www.w3.org/2000/svg">
<path d="M25.032 39.8C25.032 45.944 27.048 50.744 31.08 54.2C35.112 57.656 40.296 60.536 46.632 62.84C52.968 64.952 59.688 67.064 66.792 69.176C73.896 71.288 80.616 73.88 86.952 76.952C93.288 80.024 98.472 84.248 102.504 89.624C106.536 95 108.552 102.104 108.552 110.936C108.552 121.112 105.768 129.656 100.2 136.568C94.632 143.48 87.048 148.76 77.448 152.408C68.04 155.864 57.48 157.592 45.768 157.592C38.472 157.592 31.08 157.016 23.592 155.864C16.296 154.712 8.712 153.08 0.840001 150.968L2.856 112.376H17.544L20.136 138.008C24.36 138.968 28.776 139.832 33.384 140.6C38.184 141.176 42.6 141.464 46.632 141.464C53.352 141.464 59.688 140.504 65.64 138.584C71.592 136.472 76.392 133.496 80.04 129.656C83.688 125.624 85.512 120.632 85.512 114.68C85.512 108.344 83.496 103.352 79.464 99.704C75.624 96.056 70.536 93.08 64.2 90.776C57.864 88.472 51.144 86.36 44.04 84.44C36.936 82.328 30.216 79.736 23.88 76.664C17.736 73.592 12.648 69.368 8.616 63.992C4.584 58.616 2.568 51.512 2.568 42.68C2.568 32.888 5.064 24.92 10.056 18.776C15.24 12.44 21.96 7.83199 30.216 4.95199C38.664 1.88 47.688 0.344 57.288 0.344C63.816 0.344 71.016 1.016 78.888 2.35999C86.76 3.704 94.824 5.72 103.08 8.408L101.64 40.952H86.952L83.208 20.216C74.184 17.912 65.736 16.76 57.864 16.76C48.456 16.76 40.584 18.776 34.248 22.808C28.104 26.648 25.032 32.312 25.032 39.8Z" fill="#E8E9EE"/>
</svg>
