<svg width="168" height="157" viewBox="0 0 168 157" fill="none" xmlns="http://www.w3.org/2000/svg">
<path d="M67.136 156.592C54.464 156.592 44 152.656 35.744 144.784C27.488 136.912 23.36 124.816 23.36 108.496V20.08L0.608 15.184V2.79999L46.4 1.07199V104.464C46.4 115.984 48.992 124.528 54.176 130.096C59.552 135.664 66.848 138.448 76.064 138.448C82.784 138.448 90.08 136.72 97.952 133.264C106.016 129.616 113.984 124.048 121.856 116.56V20.08L99.104 15.184V2.79999L144.896 0.783998V136.72L167.36 141.04V153.712L127.04 155.44L123.872 130.96C114.656 139.792 105.056 146.32 95.072 150.544C85.28 154.576 75.968 156.592 67.136 156.592Z" fill="#E8E9EE"/>
</svg>
